# xmcd
#
# Track frame offsets:
#	150
#	29477
#	55513
#	79075
#	103469
#	126900
#	144112
#	165726
#	186442
#
# Disc length: 2822 seconds
#
# Revision: 0
# Processed by: cddbd v1.5.1PL0 Copyright (c) Steve Scherf et al.
# Submitted via: dBpowerAMP V4.0
#
DISCID=790b0409
DTITLE=Rokia Traoré - Mounaissa
DYEAR=1998
DGENRE=Tribal
TTITLE0=laidu
TTITLE1=Mouneïssa
TTITLE2=finini
TTITLE3=dianguina
TTITLE4=sabali
TTITLE5=tchiwara
TTITLE6=fatalité
TTITLE7=sakanto
TTITLE8=sé
EXTD=
EXTT0=
EXTT1=
EXTT2=
EXTT3=
EXTT4=
EXTT5=
EXTT6=
EXTT7=
EXTT8=
PLAYORDER=
